<?xml version="1.0" standalone="no"?>
<!DOCTYPE svg PUBLIC "-//W3C//DTD SVG 20010904//EN"
 "http://www.w3.org/TR/2001/REC-SVG-20010904/DTD/svg10.dtd">
<svg version="1.0" xmlns="http://www.w3.org/2000/svg"
 width="700.000000pt" height="700.000000pt" viewBox="0 0 700.000000 700.000000"
 preserveAspectRatio="xMidYMid meet">
<metadata>
Created by potrace 1.14, written by Peter Selinger 2001-2017
</metadata>
<g transform="translate(0.000000,700.000000) scale(0.100000,-0.100000)"
fill="#000000" stroke="none">
<path d="M0 3501 l0 -3500 67 31 c108 49 445 181 603 237 2008 706 4247 631
6193 -207 l137 -59 0 3498 0 3499 -3500 0 -3500 0 0 -3499z m1540 1485 c0
-103 -46 -261 -122 -414 -56 -115 -118 -205 -243 -356 -174 -209 -314 -431
-332 -525 l-6 -34 134 5 c145 5 183 16 248 67 52 41 102 139 125 244 l7 28 82
-3 82 -3 0 -245 0 -245 -629 -3 -629 -2 6 82 c6 95 24 168 68 277 59 149 148
279 355 521 120 140 258 364 280 454 l7 28 -119 -4 c-107 -3 -125 -7 -177 -33
-102 -51 -197 -182 -197 -270 0 -24 -2 -25 -80 -25 l-80 0 0 250 0 250 610 0
610 0 0 -44z m1430 -206 l0 -250 -84 0 -84 0 -6 45 c-10 66 -70 179 -118 219
-59 51 -113 66 -240 66 l-108 0 0 -255 0 -255 49 0 c80 0 131 59 131 153 l0
27 80 0 80 0 0 -270 0 -270 -80 0 -80 0 -1 38 c-1 93 -53 152 -135 152 l-44 0
0 -261 0 -262 113 6 c136 6 175 19 236 73 52 46 87 109 112 199 l16 60 81 3
82 3 0 -251 0 -250 -645 0 -645 0 0 85 0 85 35 0 c20 0 48 6 64 14 56 29 56
30 59 546 2 261 0 494 -3 518 -9 63 -48 103 -108 109 l-47 6 0 83 0 84 645 0
645 0 0 -250z m980 166 l0 -83 -45 -6 c-25 -2 -55 -13 -67 -23 -47 -43 -48
-53 -48 -575 0 -434 2 -495 16 -525 20 -41 59 -64 109 -64 l35 0 0 -85 0 -85
-405 0 -405 0 0 85 0 85 39 0 c50 0 96 37 111 88 15 55 12 977 -3 1022 -15 42
-68 80 -113 80 l-34 0 0 85 0 85 405 0 405 0 0 -84z m1368 -168 l2 -248 -85 0
-85 0 0 33 c0 48 -52 150 -102 198 -73 71 -133 93 -270 97 -80 3 -118 1 -118
-7 0 -24 51 -145 89 -208 47 -82 124 -186 200 -272 203 -231 313 -398 368
-561 25 -76 26 -244 0 -283 l-17 -27 -590 0 -590 0 0 250 0 251 81 -3 82 -3
14 -55 c31 -125 111 -229 199 -259 22 -7 97 -15 168 -18 l129 -5 -6 38 c-14
85 -135 282 -287 469 -175 214 -207 257 -259 340 -30 48 -70 128 -90 178 -31
83 -35 102 -36 192 0 80 4 106 18 128 l18 27 582 -2 582 -3 3 -247z m1370 0
l2 -248 -85 0 c-84 0 -85 0 -85 25 0 88 -98 223 -198 272 -51 25 -70 28 -176
32 l-119 3 7 -28 c23 -101 173 -341 302 -484 186 -205 303 -389 354 -558 27
-90 26 -221 -3 -265 l-17 -27 -590 0 -590 0 0 250 0 251 82 -3 82 -3 11 -50
c27 -118 96 -214 183 -256 39 -18 69 -23 181 -27 l134 -5 -6 36 c-17 107 -161
325 -410 622 -212 253 -312 522 -251 675 l16 40 587 -2 586 -3 3 -247z"/>
</g>
</svg>
